<svg width="23" height="23" viewBox="0 0 23 23" fill="none" xmlns="http://www.w3.org/2000/svg">
<path d="M19.1667 10.5408H21.0834C21.0834 5.62454 17.3717 1.91675 12.4488 1.91675V3.83341C16.3415 3.83341 19.1667 6.65379 19.1667 10.5408Z" fill="#BDBDBD"/>
<path d="M12.4584 7.66672C14.4737 7.66672 15.3334 8.52635 15.3334 10.5417H17.25C17.25 7.4511 15.549 5.75005 12.4584 5.75005V7.66672ZM15.7378 12.8829C15.5536 12.7156 15.3116 12.6263 15.0629 12.634C14.8142 12.6417 14.5782 12.7457 14.4047 12.9241L12.1114 15.2826C11.5594 15.1772 10.4497 14.8312 9.30736 13.6918C8.16503 12.5485 7.81907 11.4358 7.71653 10.8877L10.0731 8.59343C10.2517 8.42009 10.3559 8.18405 10.3636 7.93525C10.3713 7.68645 10.2819 7.44443 10.1143 7.26039L6.57323 3.36668C6.40557 3.18206 6.17254 3.07008 5.92363 3.05451C5.67473 3.03894 5.42956 3.12102 5.24019 3.2833L3.16061 5.06676C2.99492 5.23305 2.89603 5.45436 2.88269 5.68872C2.86832 5.9283 2.59423 11.6036 6.9949 16.0061C10.834 19.8443 15.6429 20.1251 16.9673 20.1251C17.1609 20.1251 17.2797 20.1193 17.3114 20.1174C17.5457 20.1043 17.7669 20.0049 17.9324 19.8385L19.7149 17.758C19.8773 17.5687 19.9595 17.3236 19.9441 17.0747C19.9287 16.8258 19.8169 16.5927 19.6324 16.4249L15.7378 12.8829Z" fill="#BDBDBD"/>
</svg>
